<?xml version="1.0" encoding="UTF-8"?>
<svg id="Layer_1" xmlns="http://www.w3.org/2000/svg" version="1.1" viewBox="0 0 415.51 235.26">
  <!-- Generator: Adobe Illustrator 30.5.1, SVG Export Plug-In . SVG Version: 2.1.4 Build 3)  -->
  <g>
    <path d="M296.27,166.23c-7.96-6.44-16.61,5.35-18.81-2.47-1.8-6.4,11.17-10.85,19.31-7.28,8.65,3.79,10.59,12.73,8.61,23.14,16.78,6.41,36.28,5.69,51.69-3.84,10.6-6.56,16.88-17.48,18.07-28.85,1.29-12.32-3.73-24.59-13.15-32.97-10.71-9.53-25.89-12.08-39.48-7.92-14.53,4.45-23.25,18.06-21.43,33.04.78,6.38,4.73,11.79,9.54,14.09,6.41,3.07,13.9,3.98,18.79-1.74-5.5.04-9.61-1.57-10.71-5.75-1.21-4.6,1.75-9.05,6.49-9.48s8.31,3,8.35,8.09c.06,8.1-4.25,14.59-12.52,16.49-11.98,2.75-25.58-4.21-28.86-16.71-5.01-19.09,12.57-42.61,32.26-49.09,18.58-6.12,39.23-1.74,54.43,10.03,16.18,12.52,20.86,35.39,15.6,54.86-3.79,14.04-13.27,24.97-26.74,30.43-21.63,8.76-43.25,3.23-63.91-6.92-6.75,12.53-28.61,14.87-37.19,5.89-4.28-4.48-3.75-13.14.44-17.55,5.19-5.47,12.93-4.81,18.99-1.85l13.77,6.72c.63-4.47-.71-8.06-3.52-10.34ZM298.2,180.49l-15.76-8.11c-1.78-.92-6.29.37-7.23,2.01-.84,1.46-.65,5.39.38,6.93,2.7,4.05,7.22,5.49,11.54,5.5s8.33-2.26,11.07-6.34Z"/>
    <path d="M246.01,118.52c12.74,8.39,28.94,2.92,35.78-10.25,4.18-8.06,5.34-17.3.08-25.28-5.77-8.76-17.17-13.56-27.35-10.93-9.49,2.45-14.8,12.65-10.66,21.39,1.37-1.95,3.06-4.07,4.6-4.14,1.99-.1,4.31,2.11,4.42,3.65.17,2.46-2.42,5.18-5.02,4.5-7.32-1.91-10.72-8.68-9.73-15.89,1.22-8.86,7.28-15.77,15.58-19.57,15.73-7.2,34.48-.36,42.68,14.11,8.76,15.45,4.89,33.37-9.48,44.56-12.3,9.57-29.27,10.02-43.21,2.03-4.46,4.93-9.69,8.43-15.5,8.7-6.31.3-11.99-2.56-16.43-7.16s-5.29-11.87.66-15.59c3-1.88,8.55-.93,11.98-.32-1.12-1.97-2.3-4.62-2.07-6.51s3.1-4.4,5.15-4.82c6.48-1.31,11.73,1.04,15.44,4.78,4.53,4.58,4.96,10.57,3.11,16.73ZM239.3,114.93c-.03-2.7-.89-5.85-2.52-6.52-1.95-.8-4.89-.09-8.05,1.39l10.57,5.13ZM238.91,119.28c-4.93-3.11-9.22-4.97-14.18-5.42-3.4-.31-6.15,2.08-6.8,5.14-.41,1.94,1.21,5.2,3.62,6.44,6.4,3.28,14.66.93,17.36-6.17Z"/>
    <path d="M132.84,177.01c-1.97,7.63,12.14,9.62,5.55,17.44-2.08,2.48-7.04,2.86-9.28-.67-2.74-4.32-4.06-10.19-3.39-15.39,1-7.82,6.53-13.83,12.93-15.91,7.72-2.51,15.96-.43,21.04,5.72s5.48,14.55-.23,21.77l37.93.2c.41-11.55-.62-22.55-5.87-32.82-1.02-1.99-1.45-5.56-.12-7.54,1-1.48,4.05-2.54,6.21-2.29,1.77.21,4.65,3.01,4.67,4.98l.42,42.08h-49.03c-.84.01-3.43-.51-3.48-1.33l-.23-3.57c1.43-4.4,1.2-8.27-1.17-12.66-1.75-2.07-5.58-5.41-9.41-5.2-2.9.16-6,3.1-6.54,5.17Z"/>
    <path d="M259.45,192.34c2.58,27.13,17.1,31.3,12.7,39.64-1.08,2.05-4.36,3.68-7.63,3.18-2.35-.36-4.76-3.11-5.69-6.25-7.78-26.22-6.48-53.36.85-79.57,1.6-5.72-.64-10.95-5.84-12.52-4.93-1.49-10.19,1.28-11.86,6.84-1.62-7.78,4-13.42,11.15-13.94,5.77-.42,12.28,1.84,14.18,8.03,3.57,11.62-10.47,27.21-7.86,54.6Z"/>
    <path d="M218.29,209.41c-14.79-.28-9.9-43.96-6.98-62.29,1.07-6.74-2.68-13.55-9.81-12.88l3.87,3.07c.98.77.49,4.35-.21,5.51-1.41,2.32-5.02,3.26-7.71,2.3-1.92-.69-4.01-4.16-3.84-6.82.45-6.94,6.6-10.47,12.71-10.31s11.41,6.43,10.45,13.35c-2.32,16.63-4.13,40.77,6.31,52.49,2.68,3.01,4.69,5.67,3.56,9.7-.94,3.35-4.47,5.96-8.36,5.88Z"/>
    <path d="M172.61,118.8c2.07,6.38,12.39,8.7,18.02,4.47s6.79-11.71,5.04-17.78c-1.5-5.2-7.1-7.42-11.56-5.94-2.46,4.56-1.58,10.36-7.86,9.96-3.14-.2-5.97-3.42-5.26-7.07,2.14-11.01,13.67-16.17,23.82-12.26,6.94,2.67,11.18,8.24,11.26,16.28.11,10.94-7.6,21.82-18.35,24.68-4.6,1.22-9.23-.39-12.51-2.89-4.16-3.18-5.21-11.73-1.89-14.03.51-.35,2.33,1.11,1.92,1.57l-2.63,3.01Z"/>
    <path d="M240.17,194.19c-8.25,1.86-16.11-1.81-17.68-9.93-.47-2.41.91-5.95,2.78-6.96s5.21-.78,6.68.45c4.42,3.69-.44,9.98,2.66,11.85.83.5,3.06.14,3.82-.59,2.41-2.33,2.65-6.22,1.54-9.45-2.12-6.13-12.14-3.85-15.9-9.47-2.88-4.31-2.18-9.32-.04-13.05,2.56-4.47,7.43-5.96,12.71-6.03,7.03-.09,13.28,5.31,12.76,11.83-.06.7-.82,1.98-1.2,2.31-.51.45-2.85-.89-2.37-1.37l2.52-2.52c-1.06-5.25-7.6-6.74-12.6-4.3-4.12,2.01-6.59,10.85-.96,12.99,4.68,1.78,10.59.73,14.32,4.98,2.81,3.21,2.82,8.15,1.11,12.28-1.34,3.24-5.52,5.92-10.14,6.96Z"/>
    <path d="M403.15,181.78c-16.64,23.76-53.94,19.63-54.4,19.13-.03-.03.96-1.1,1.23-1.4,20.05-.8,38.16-10.95,48.66-28.24,1.65-2.56,5.26-5.1,7.9-4.05,1.97,5.04-.47,10.39-3.39,14.56Z"/>
    <path d="M302.32,78.08c-4.68-11.09-13.4-19.68-25.47-23.77l-2.48-2.66c-1.61-1.72,7.01-6.13,17.72,3.31,5.31,6.41,9.75,13.59,10.23,23.12Z"/>
    <circle cx="409.62" cy="156.76" r="5.88"/>
    <path d="M121.07,184.94c-6.74-4.5-1.68-17.13,6.85-20.95-4.35,6.67-6.06,12.32-6.85,20.95Z"/>
  </g>
  <g>
    <path d="M124.03,55.34c-16.88-25.93-52.79-34.24-71.62-13.47-6.12,6.75-7.92,15.46-8.43,24.38-.69,12.05,5.94,22.47,17.46,26.35,6.41,2.16,13.91,1.04,18.99-3.5,4.55-4.06,5.36-11.25-.12-15.08.03,2.34.16,4.8-.61,6.16-.96,1.72-4.91,2.65-6.5,1.89-1.89-.91-3.48-4.52-2.7-6.49,2.91-7.38,9.99-9.6,16.62-6.87,6.39,2.63,9.21,8.25,8.25,15.4-1.06,7.85-7.1,14.22-15.52,16.64-13.32,3.84-28.64.49-40.19-7.27-10-6.72-13.95-17.58-12.91-29.25,1.41-15.88,9.41-29.63,23.91-37.2,28.78-15.03,69.28-13.43,88.19,13.09,12.36,17.34,13.81,40.33,5.43,59.44-5.7,13.01-15.56,21.03-29.37,26.02l42.68-.74c4.05-21.11,1.71-42.53-5.98-62.58-1.83-4.77,2.7-8.95,6.53-9.09,4.56-.17,7.98,3,7.9,8.11l-1.1,70.15-153.01.27c-4.54,0-8.11-.71-10.33-4.05s-2.1-7.92.06-10.92c2.3-3.2,6.29-5,10.48-3.88,28.3,7.55,66.44,14.42,93.33,5.24,23.08-7.88,33.32-40.05,18.54-62.75Z"/>
    <path d="M134.77,26.63c-15.45-12.37-33.49-18.18-53.09-14.99-1.91.31-6.45-.35-7.47-1.78-1.24-2.51,1.83-5.75,4.2-6.94,8.86-4.43,18.31-3.33,27.62.09,11.29,5.22,21.47,12.82,28.73,23.62Z"/>
  </g>
</svg>